<?xml version="1.0" encoding="utf-8"?>
<!-- Generator: Adobe Illustrator 16.0.0, SVG Export Plug-In . SVG Version: 6.00 Build 0)  -->
<!DOCTYPE svg PUBLIC "-//W3C//DTD SVG 1.1//EN" "http://www.w3.org/Graphics/SVG/1.1/DTD/svg11.dtd">
<svg version="1.1" id="Layer_1" xmlns="http://www.w3.org/2000/svg" xmlns:xlink="http://www.w3.org/1999/xlink" x="0px" y="0px"
	 width="512px" height="512px" viewBox="0 0 512 512" enable-background="new 0 0 512 512" xml:space="preserve">
<g>
	<defs>
		<rect id="SVGID_1_" width="512" height="512"/>
	</defs>
	<clipPath id="SVGID_2_">
		<use xlink:href="#SVGID_1_"  overflow="visible"/>
	</clipPath>
	<path clip-path="url(#SVGID_2_)" d="M300.6,442.1c16.2-16.8,29.801-42.3,39.601-73.699c18.3,5.5,35.7,12.8,52.3,21.6
		C367.7,415.2,336,433.6,300.6,442.1 M119.6,390c16.4-8.8,33.8-16,51.8-21.5c9.7,31.2,23.3,56.6,39.4,73.4
		C175.6,433.4,144.2,415.1,119.6,390z M210.8,70.1c-16.1,16.7-29.7,42.2-39.3,73.3c-18.1-5.5-35.4-12.7-51.8-21.5
		C144.2,96.9,175.6,78.6,210.8,70.1z M392.4,121.9c-16.601,8.8-34,16.1-52.301,21.6c-9.699-31.3-23.399-56.8-39.5-73.6
		C336,78.4,367.6,96.8,392.4,121.9z M355.9,247.7C355.3,216,351.3,186.1,344.6,159.6c20.801-6.3,40.601-14.7,59.2-24.9
		c25.5,31,41.5,70.2,43.3,113.1H355.9V247.7z M355.9,264.3H447.1c-1.8,42.8-17.8,81.9-43.3,113c-18.7-10.3-38.5-18.7-59.3-25
		C351.3,325.8,355.3,296,355.9,264.3z M264.3,339.4V264.3h74.9c-0.601,30.9-4.5,59.2-10.7,83.7C307.8,343,286.4,340,264.3,339.4z
		 M264.3,446v-90c20.5,0.6,40.4,3.3,59.7,7.9C309.5,409.9,286.8,439.8,264.3,446z M247.7,356.1v90.2
		c-22.6-5.899-45.5-35.899-60.1-82.1C206.9,359.4,227,356.7,247.7,356.1z M172.3,264.3h75.4V339.4c-22.2,0.6-43.9,3.6-64.7,8.699
		C176.8,323.6,172.9,295.3,172.3,264.3z M155.5,264.3c0.6,31.7,4.6,61.7,11.4,88.2c-20.6,6.3-40.2,14.6-58.8,24.8
		c-25.5-31-41.4-70.2-43.3-113H155.5z M155.5,247.7H64.9c1.8-42.8,17.8-82,43.3-113c18.5,10.2,38.2,18.6,58.8,24.8
		C160.2,186,156.2,215.9,155.5,247.7z M247.7,172.5v75.2h-75.4c0.6-31,4.5-59.3,10.7-83.8C203.8,168.9,225.5,171.9,247.7,172.5z
		 M247.7,65.8v90.1c-20.7-0.6-40.8-3.3-60.1-8C202.2,101.7,225.1,71.6,247.7,65.8z M264.3,155.8V66c22.4,6.2,45.2,36.1,59.601,82
		C304.7,152.6,284.8,155.2,264.3,155.8z M264.3,172.5c22.101-0.6,43.5-3.5,64.2-8.5c6.2,24.5,10.1,52.8,10.7,83.8h-74.9V172.5z
		 M256,48c-0.1,0-0.1,0-0.2,0c0,0,0,0-0.1,0c-0.1,0-0.2,0-0.2,0C140.8,48.3,48,141.3,48,256s92.8,207.7,207.5,208c0.1,0,0.2,0,0.2,0
		h0.1c0.1,0,0.1,0,0.2,0c114.9,0,208-93.1,208-208C464,141.1,370.9,48,256,48z"/>
</g>
</svg>
