<?xml version="1.0" encoding="utf-8"?>
<!-- Generator: Adobe Illustrator 16.0.0, SVG Export Plug-In . SVG Version: 6.00 Build 0)  -->
<!DOCTYPE svg PUBLIC "-//W3C//DTD SVG 1.1//EN" "http://www.w3.org/Graphics/SVG/1.1/DTD/svg11.dtd">
<svg version="1.1" id="Layer_1" xmlns="http://www.w3.org/2000/svg" xmlns:xlink="http://www.w3.org/1999/xlink" x="0px" y="0px"
	 width="512px" height="512px" viewBox="0 0 512 512" enable-background="new 0 0 512 512" xml:space="preserve">
<g>
	<defs>
		<rect id="SVGID_1_" width="512" height="512"/>
	</defs>
	<clipPath id="SVGID_2_">
		<use xlink:href="#SVGID_1_"  overflow="visible"/>
	</clipPath>
	<path clip-path="url(#SVGID_2_)" fill="#231F20" d="M178.354,287.478c-9.123,0-16.928,4.207-23.201,12.833
		c-6.291,8.479-9.398,18.974-9.398,31.432c0,12.474,3.166,23.008,9.398,31.509c6.273,8.54,14.039,12.771,23.201,12.771
		c8.494,0,15.889-4.271,22.121-12.771c6.271-8.501,9.398-19.035,9.398-31.509c0-12.419-3.166-22.931-9.398-31.432
		C194.242,291.724,186.908,287.478,178.354,287.478"/>
	<path clip-path="url(#SVGID_2_)" fill="#231F20" d="M334.668,287.478c-9.045,0-16.891,4.207-23.182,12.833
		c-6.271,8.479-9.359,18.974-9.359,31.432c0,12.474,3.186,23.008,9.359,31.509c6.291,8.54,14.098,12.771,23.182,12.771
		c8.533,0,15.906-4.271,22.178-12.771c6.293-8.501,9.418-19.035,9.418-31.509c0-12.419-3.164-22.931-9.418-31.432
		C350.574,291.724,343.299,287.478,334.668,287.478"/>
	<path clip-path="url(#SVGID_2_)" fill="#231F20" d="M380.383,405.645C352.521,418.736,311.486,424,257.061,424l-2.143-0.039
		c-54.443,0-95.361-5.248-122.848-18.41c-27.508-13.092-41.271-40.057-41.271-80.737c0-24.33,8.572-43.99,25.482-59.107
		c7.354-6.515,16.438-11.019,27.645-13.717c11.129-2.558,21.354-2.762,30.969-2.465c9.398,0.415,22.551,2.196,39.344,3.464
		C231.029,254.285,243.535,256,256,256c11.698,0,27.213-1.957,52.104-3.959c24.99-1.971,43.494-2.971,55.468-1
		c12.289,2.002,22.985,6.202,32.129,14.742c17.733,15.751,26.602,35.505,26.602,59.084
		C422.301,365.533,408.164,392.537,380.383,405.645 M445.777,172h-0.06c0,0,2.793-14.264,0.314-39.18
		c-2.183-24.916-7.472-47.838-16.123-68.82c0,0-4.422,0.76-12.76,2.896c-8.339,2.136-22.08,6.299-40.938,14.768
		c-18.541,8.54-37.986,19.788-58.297,33.505c-13.803-3.934-34.408-5.939-61.994-5.939c-26.289,0-46.914,2.012-61.977,5.945
		C149.351,84.316,112.111,67.23,81.851,64c-8.594,20.982-13.883,43.991-16.045,68.97c-2.398,24.939,0.432,39.329,0.432,39.329
		C41.979,198.551,32,236.541,32,267.793c0,24.244,0.658,46.078,6.125,65.48c5.564,19.31,12.662,35.13,21.098,47.221
		c8.611,12.121,19.012,22.788,31.576,31.938c12.467,9.314,23.988,15.962,34.389,20.217c10.461,4.371,22.375,7.602,35.982,9.86
		c13.33,2.386,23.438,3.646,30.477,3.996c0,0,28,1.494,64.354,1.494c36.354,0,64.295-1.494,64.295-1.494
		c7.021-0.352,17.146-1.634,30.535-3.996c13.547-2.299,25.521-5.606,35.941-9.86c10.401-4.293,21.942-10.901,34.469-20.217
		c12.522-9.031,22.906-19.738,31.518-31.938c8.437-12.091,15.494-27.911,21.099-47.221c5.485-19.402,6.145-41.386,6.145-65.63
		C480,237.389,469.982,199,445.777,172z"/>
</g>
</svg>
