<?xml version="1.0" encoding="utf-8"?>
<!-- Generator: Adobe Illustrator 16.0.0, SVG Export Plug-In . SVG Version: 6.00 Build 0)  -->
<!DOCTYPE svg PUBLIC "-//W3C//DTD SVG 1.1//EN" "http://www.w3.org/Graphics/SVG/1.1/DTD/svg11.dtd">
<svg version="1.1" id="Layer_1" xmlns="http://www.w3.org/2000/svg" xmlns:xlink="http://www.w3.org/1999/xlink" x="0px" y="0px"
	 width="512px" height="512px" viewBox="0 0 512 512" enable-background="new 0 0 512 512" xml:space="preserve">
<g>
	<defs>
		<rect id="SVGID_1_" width="512" height="512"/>
	</defs>
	<clipPath id="SVGID_2_">
		<use xlink:href="#SVGID_1_"  overflow="visible"/>
	</clipPath>
	<path clip-path="url(#SVGID_2_)" d="M492,109.5c-17.4,7.7-36,12.9-55.6,15.3c20-12,35.399-31,42.6-53.6
		c-18.7,11.1-39.4,19.2-61.5,23.5C399.8,75.8,374.6,64,346.8,64c-53.5,0-96.8,43.4-96.8,96.9c0,7.6,0.8,15,2.5,22.1
		C172,179,100.6,140.4,52.9,81.7c-8.3,14.3-13.1,31-13.1,48.7c0,33.6,17.2,63.3,43.2,80.7c-16-0.4-31-4.8-44-12.1c0,0.4,0,0.8,0,1.2
		c0,47,33.4,86.1,77.7,95c-8.1,2.2-16.7,3.399-25.5,3.399c-6.2,0-12.3-0.6-18.2-1.8c12.3,38.5,48.1,66.5,90.5,67.3
		c-33.1,26-74.9,41.5-120.3,41.5c-7.8,0-15.5-0.5-23.1-1.399C62.8,432,113.7,448,168.3,448C346.6,448,444,300.3,444,172.2
		c0-4.2-0.1-8.4-0.3-12.5C462.6,146,479,129,492,109.5"/>
</g>
</svg>
