<?xml version="1.0" encoding="utf-8"?>
<!-- Generator: Adobe Illustrator 16.0.0, SVG Export Plug-In . SVG Version: 6.00 Build 0)  -->
<!DOCTYPE svg PUBLIC "-//W3C//DTD SVG 1.1//EN" "http://www.w3.org/Graphics/SVG/1.1/DTD/svg11.dtd">
<svg version="1.1" id="Layer_1" xmlns="http://www.w3.org/2000/svg" xmlns:xlink="http://www.w3.org/1999/xlink" x="0px" y="0px"
	 width="512px" height="512px" viewBox="0 0 512 512" enable-background="new 0 0 512 512" xml:space="preserve">
<g>
	<defs>
		<rect id="SVGID_1_" width="512" height="512"/>
	</defs>
	<clipPath id="SVGID_2_">
		<use xlink:href="#SVGID_1_"  overflow="visible"/>
	</clipPath>
	<path clip-path="url(#SVGID_2_)" d="M391.8,391.8c-18.7,18.7-40.5,33-64.3,42.5l-18.9-61.5c14-6.3,26.801-15.1,38-26.3
		c11.2-11.2,20-24,26.301-38l61.5,18.9C424.8,351.3,410.4,373.1,391.8,391.8 M77.7,327.5l61.5-18.9c6.3,14,15.1,26.801,26.3,38
		c11.2,11.2,24,20,38,26.301l-18.9,61.5c-23.8-9.5-45.6-23.9-64.3-42.5C101.6,373.1,87.2,351.3,77.7,327.5z M120.2,120.2
		c18.7-18.7,40.5-33,64.3-42.5l18.9,61.5c-14,6.3-26.8,15.1-38,26.3c-11.2,11.2-20,24-26.3,38l-61.5-18.9
		C87.2,160.7,101.6,138.9,120.2,120.2z M256,352c-53,0-96-43-96-96s43-96,96-96s96,43,96,96S309,352,256,352z M434.3,184.5
		l-61.5,18.9c-6.3-14-15.1-26.8-26.3-38c-11.2-11.2-24-20-38-26.3l18.9-61.5c23.8,9.5,45.6,23.9,64.3,42.5
		C410.4,138.9,424.8,160.7,434.3,184.5z M256,32C132.3,32,32,132.3,32,256s100.3,224,224,224s224-100.3,224-224S379.7,32,256,32z"/>
</g>
</svg>
