<?xml version="1.0" encoding="utf-8"?>
<!-- Generator: Adobe Illustrator 16.0.0, SVG Export Plug-In . SVG Version: 6.00 Build 0)  -->
<!DOCTYPE svg PUBLIC "-//W3C//DTD SVG 1.1//EN" "http://www.w3.org/Graphics/SVG/1.1/DTD/svg11.dtd">
<svg version="1.1" id="Layer_1" xmlns="http://www.w3.org/2000/svg" xmlns:xlink="http://www.w3.org/1999/xlink" x="0px" y="0px"
	 width="512px" height="512px" viewBox="0 0 512 512" enable-background="new 0 0 512 512" xml:space="preserve">
<g>
	<defs>
		<rect id="SVGID_1_" width="512" height="512"/>
	</defs>
	<clipPath id="SVGID_2_">
		<use xlink:href="#SVGID_1_"  overflow="visible"/>
	</clipPath>
	<path clip-path="url(#SVGID_2_)" d="M312.568,199.265c31.242,31.242,31.242,81.895,0,113.137s-81.895,31.242-113.137,0
		c-31.242-31.242-31.242-81.895,0-113.137C230.673,168.022,281.326,168.022,312.568,199.265"/>
	<path clip-path="url(#SVGID_2_)" d="M416.5,147.7c0,7.069-5.73,12.8-12.8,12.8h-38.4c-7.068,0-12.8-5.73-12.8-12.8v-38.4
		c0-7.069,5.73-12.8,12.8-12.8h38.4c7.068,0,12.8,5.73,12.8,12.8V147.7 M177.805,176.887c21.154-21.154,49.279-32.929,79.195-32.929
		s58.041,11.837,79.195,32.991c13.422,13.422,23.011,29.551,28.231,47.551H448.5v-113c0-26.51-20.49-47-47-47h-288
		c-26.51,0-49,20.49-49,47v113h85.072C154.794,206.5,164.383,190.309,177.805,176.887z"/>
	<path clip-path="url(#SVGID_2_)" d="M336.195,335.279c-21.154,21.153-49.279,32.679-79.195,32.679s-58.041-11.462-79.195-32.616
		c-21.115-21.115-32.759-49.842-32.803-78.842H64.5v143c0,26.51,22.49,49,49,49h288c26.51,0,47-22.49,47-49v-143h-79.502
		C368.955,285.5,357.311,314.164,336.195,335.279"/>
</g>
</svg>
