<?xml version="1.0" encoding="utf-8"?>
<!-- Generator: Adobe Illustrator 16.0.0, SVG Export Plug-In . SVG Version: 6.00 Build 0)  -->
<!DOCTYPE svg PUBLIC "-//W3C//DTD SVG 1.1//EN" "http://www.w3.org/Graphics/SVG/1.1/DTD/svg11.dtd">
<svg version="1.1" id="Layer_1" xmlns="http://www.w3.org/2000/svg" xmlns:xlink="http://www.w3.org/1999/xlink" x="0px" y="0px"
	 width="512px" height="512px" viewBox="0 0 512 512" enable-background="new 0 0 512 512" xml:space="preserve">
<g>
	<defs>
		<rect id="SVGID_1_" width="512" height="512"/>
	</defs>
	<clipPath id="SVGID_2_">
		<use xlink:href="#SVGID_1_"  overflow="visible"/>
	</clipPath>
	<path clip-path="url(#SVGID_2_)" d="M212.596,215.702l11.415-11.414l201.467,201.469l-11.413,11.414L212.596,215.702
		 M192.011,149.661l-34.043,34.041l256.098,256.096L448,405.757L192.011,149.661z"/>
	<rect x="184" y="64" clip-path="url(#SVGID_2_)" width="16" height="40"/>
	<rect x="184" y="268" clip-path="url(#SVGID_2_)" width="16" height="40"/>
	<rect x="280" y="176" clip-path="url(#SVGID_2_)" width="40" height="16"/>
	<rect x="64" y="176" clip-path="url(#SVGID_2_)" width="40" height="16"/>
	
		<rect x="111.877" y="94.073" transform="matrix(0.7071 -0.7071 0.7071 0.7071 -45.551 118.1767)" clip-path="url(#SVGID_2_)" width="16" height="40"/>
	
		<rect x="111.876" y="238.33" transform="matrix(0.7071 0.7071 -0.7071 0.7071 217.7773 -9.1014)" clip-path="url(#SVGID_2_)" width="15.998" height="40"/>
	
		<rect x="256.126" y="94.08" transform="matrix(0.7071 0.7071 -0.7071 0.7071 158.0269 -153.3524)" clip-path="url(#SVGID_2_)" width="16" height="39.999"/>
</g>
</svg>
